<svg width="32" height="38" viewBox="0 0 32 38" fill="none" xmlns="http://www.w3.org/2000/svg">
<path fill-rule="evenodd" clip-rule="evenodd" d="M7.25 3.125C7.25 2.44538 7.51998 1.7936 8.00054 1.31304C8.4811 0.832477 9.13288 0.5625 9.8125 0.5625H25.1875C25.8671 0.5625 26.5189 0.832477 26.9995 1.31304C27.48 1.7936 27.75 2.44538 27.75 3.125V8.25H28.0319C28.6031 8.25001 29.158 8.44091 29.6083 8.79237C30.0587 9.14382 30.3787 9.63568 30.5175 10.1898L31.1581 12.7523C31.2528 13.1302 31.26 13.5246 31.1794 13.9057C31.0987 14.2867 30.9322 14.6444 30.6926 14.9515C30.453 15.2586 30.1465 15.507 29.7964 15.6778C29.4464 15.8487 29.062 15.9375 28.6725 15.9375H27.75V17.2188H29.0312C29.7109 17.2188 30.3626 17.4887 30.8432 17.9693C31.3238 18.4499 31.5938 19.1016 31.5938 19.7812V21.0625C31.5938 21.7421 31.3238 22.3939 30.8432 22.8745C30.3626 23.355 29.7109 23.625 29.0312 23.625H27.75V28.75C27.75 29.4296 27.48 30.0814 26.9995 30.562C26.5189 31.0425 25.8671 31.3125 25.1875 31.3125H19.3117L18.5532 32.071L16.4366 36.3017C16.2239 36.7273 15.897 37.0852 15.4923 37.3355C15.0877 37.5858 14.6214 37.7185 14.1457 37.7188H6.35569C5.85039 37.7184 5.35648 37.5686 4.93606 37.2882L1.98406 35.3203C1.63322 35.0862 1.34557 34.7691 1.14665 34.3972C0.947732 34.0253 0.843688 33.61 0.843751 33.1883V23.7173C0.843638 23.5955 0.852201 23.4739 0.869376 23.3534L3.26275 6.60744C3.34975 5.99659 3.65424 5.43764 4.12027 5.03327C4.58631 4.62889 5.18261 4.40626 5.79963 4.40625H7.25V3.125ZM7.25 6.96875H5.79963L3.40625 23.7173V33.1883L6.35569 35.1562H8.53125V31.7404C8.53125 31.186 8.71108 30.6465 9.04375 30.2029L15.8088 21.1829L13.6563 19.0304L8.15713 24.5321L6.34288 22.7179L7.25 21.8133V6.96875ZM9.8125 19.2508L11.8446 17.2188C12.3251 16.7384 12.9768 16.4685 13.6563 16.4685C14.3357 16.4685 14.9874 16.7384 15.4679 17.2188L17.6204 19.3713C18.0566 19.8074 18.3208 20.3862 18.3646 21.0014C18.4083 21.6166 18.2287 22.227 17.8588 22.7204L13.3359 28.75H25.1875V3.125H9.8125V19.2508ZM27.75 13.375H28.6725L28.0319 10.8125H27.75V13.375ZM27.75 19.7812V21.0625H29.0312V19.7812H27.75ZM11.4141 31.3125L11.0938 31.7404V35.1562H14.1457L16.0676 31.3125H11.4141ZM16.2188 6.96875V5.6875H18.7813V6.96875H16.2188ZM17.5 6.96875C16.4806 6.96875 15.5029 7.37372 14.7821 8.09456C14.0612 8.8154 13.6563 9.79307 13.6563 10.8125H12.375V13.375H22.625V10.8125H21.3438C21.3438 9.79307 20.9388 8.8154 20.2179 8.09456C19.4971 7.37372 18.5194 6.96875 17.5 6.96875ZM17.5 9.53125C17.1602 9.53125 16.8343 9.66624 16.594 9.90652C16.3537 10.1468 16.2188 10.4727 16.2188 10.8125H18.7813C18.7813 10.4727 18.6463 10.1468 18.406 9.90652C18.1657 9.66624 17.8398 9.53125 17.5 9.53125ZM12.7491 23.2509L11.4679 21.9696L13.2821 20.1554L14.5634 21.4366L12.7491 23.2509Z" fill="#2A2A2A"/>
</svg>
