<svg width="31" height="31" viewBox="0 0 31 31" fill="none" xmlns="http://www.w3.org/2000/svg">
<path d="M15.5 30.875C11.9125 30.875 8.73785 29.7862 5.97604 27.6087C3.21424 25.4311 1.42049 22.6477 0.594792 19.2583C0.480903 18.8312 0.566319 18.44 0.851042 18.0847C1.13576 17.7294 1.52014 17.5227 2.00417 17.4646C2.45972 17.4076 2.87257 17.4931 3.24271 17.7208C3.61285 17.9486 3.8691 18.2903 4.01146 18.7458C4.69479 21.3083 6.10417 23.401 8.23958 25.024C10.375 26.6469 12.7951 27.4583 15.5 27.4583C18.8313 27.4583 21.6574 26.2984 23.9785 23.9785C26.2995 21.6585 27.4595 18.8324 27.4583 15.5C27.4572 12.1676 26.2972 9.34203 23.9785 7.02325C21.6597 4.70447 18.8335 3.54394 15.5 3.54167C13.5354 3.54167 11.699 3.99722 9.99062 4.90833C8.28229 5.81945 6.84444 7.07222 5.67708 8.66667H8.66667C9.15069 8.66667 9.55671 8.83067 9.88471 9.15867C10.2127 9.48667 10.3761 9.89211 10.375 10.375C10.3739 10.8579 10.2099 11.2639 9.883 11.593C9.55614 11.9222 9.15069 12.0856 8.66667 12.0833H1.83333C1.34931 12.0833 0.943861 11.9193 0.617 11.5913C0.290139 11.2633 0.126139 10.8579 0.125 10.375V3.54167C0.125 3.05764 0.289 2.65219 0.617 2.32533C0.945 1.99847 1.35044 1.83447 1.83333 1.83333C2.31622 1.83219 2.72224 1.99619 3.05137 2.32533C3.38051 2.65447 3.54394 3.05992 3.54167 3.54167V5.84792C4.99375 4.02569 6.76643 2.61632 8.85971 1.61979C10.953 0.623264 13.1664 0.125 15.5 0.125C17.6354 0.125 19.6359 0.531014 21.5014 1.34304C23.3669 2.15507 24.9898 3.25068 26.3701 4.62988C27.7505 6.00907 28.8466 7.63199 29.6587 9.49863C30.4707 11.3653 30.8761 13.3657 30.875 15.5C30.8739 17.6343 30.4684 19.6347 29.6587 21.5014C28.8489 23.368 27.7527 24.9909 26.3701 26.3701C24.9875 27.7493 23.3646 28.8455 21.5014 29.6587C19.6382 30.4718 17.6377 30.8773 15.5 30.875ZM17.2083 14.8167L21.4792 19.0875C21.7924 19.4007 21.949 19.7993 21.949 20.2833C21.949 20.7674 21.7924 21.166 21.4792 21.4792C21.166 21.7924 20.7674 21.949 20.2833 21.949C19.7993 21.949 19.4007 21.7924 19.0875 21.4792L14.3042 16.6958C14.1333 16.525 14.0052 16.3331 13.9198 16.1201C13.8344 15.9072 13.7917 15.6862 13.7917 15.4573V8.66667C13.7917 8.18264 13.9557 7.77719 14.2837 7.45033C14.6117 7.12347 15.0171 6.95947 15.5 6.95833C15.9829 6.95719 16.3889 7.12119 16.718 7.45033C17.0472 7.77947 17.2106 8.18492 17.2083 8.66667V14.8167Z" fill="#2A2A2A"/>
</svg>
