<svg width="35" height="31" viewBox="0 0 35 31" fill="none" xmlns="http://www.w3.org/2000/svg">
<path d="M20.5306 25.75L22.5396 27.759C22.8508 28.0812 23.023 28.5127 23.0191 28.9606C23.0152 29.4085 22.8355 29.837 22.5188 30.1538C22.202 30.4705 21.7736 30.6502 21.3256 30.654C20.8777 30.6579 20.4462 30.4858 20.124 30.1746L15.2911 25.3434C14.9709 25.023 14.7909 24.5886 14.7909 24.1356C14.7909 23.6826 14.9709 23.2482 15.2911 22.9278L20.124 18.0949C20.4446 17.7746 20.8792 17.5947 21.3324 17.5949C21.7856 17.5951 22.2201 17.7752 22.5404 18.0958C22.8608 18.4163 23.0406 18.851 23.0405 19.3042C23.0403 19.7574 22.8601 20.1919 22.5396 20.5122L20.7168 22.3333H24.3333C26.1456 22.3333 27.8837 21.6134 29.1652 20.3319C30.4467 19.0504 31.1667 17.3123 31.1667 15.5C31.1667 13.6877 30.4467 11.9496 29.1652 10.6681C27.8837 9.38658 26.1456 8.66665 24.3333 8.66665C23.8803 8.66665 23.4457 8.48666 23.1254 8.16629C22.805 7.84591 22.625 7.41139 22.625 6.95831C22.625 6.50523 22.805 6.07071 23.1254 5.75034C23.4457 5.42996 23.8803 5.24998 24.3333 5.24998C27.0518 5.24998 29.6589 6.32989 31.5812 8.25214C33.5034 10.1744 34.5833 12.7815 34.5833 15.5C34.5833 18.2184 33.5034 20.8256 31.5812 22.7478C29.6589 24.6701 27.0518 25.75 24.3333 25.75H20.5306ZM14.5497 5.24998L12.6757 3.37765C12.5169 3.21892 12.391 3.03049 12.3051 2.82311C12.2192 2.61573 12.175 2.39347 12.175 2.169C12.175 1.71567 12.3551 1.28091 12.6757 0.960354C12.9962 0.639801 13.431 0.459717 13.8843 0.459717C14.3376 0.459717 14.7724 0.639801 15.093 0.960354L19.9241 5.79323C20.2444 6.11359 20.4243 6.54803 20.4243 7.00102C20.4243 7.45401 20.2444 7.88845 19.9241 8.20881L15.093 13.04C14.7726 13.3605 14.3381 13.5407 13.8849 13.5409C13.4317 13.541 12.9971 13.3612 12.6765 13.0408C12.356 12.7205 12.1758 12.286 12.1756 11.8328C12.1755 11.3796 12.3553 10.9449 12.6757 10.6244L14.6351 8.66665H10.6667C8.85436 8.66665 7.11627 9.38658 5.83477 10.6681C4.55327 11.9496 3.83333 13.6877 3.83333 15.5C3.83333 17.3123 4.55327 19.0504 5.83477 20.3319C7.11627 21.6134 8.85436 22.3333 10.6667 22.3333C11.1197 22.3333 11.5543 22.5133 11.8746 22.8337C12.195 23.154 12.375 23.5886 12.375 24.0416C12.375 24.4947 12.195 24.9292 11.8746 25.2496C11.5543 25.57 11.1197 25.75 10.6667 25.75C7.9482 25.75 5.34107 24.6701 3.41882 22.7478C1.49658 20.8256 0.416668 18.2184 0.416668 15.5C0.416668 12.7815 1.49658 10.1744 3.41882 8.25214C5.34107 6.32989 7.9482 5.24998 10.6667 5.24998H14.5497Z" fill="#2A2A2A"/>
</svg>
