<svg width="92" height="92" viewBox="0 0 92 92" fill="none" xmlns="http://www.w3.org/2000/svg">
<path fill-rule="evenodd" clip-rule="evenodd" d="M25.6111 20.5139C25.6111 15.1064 27.7592 9.92042 31.5829 6.09677C35.4065 2.27311 40.5925 0.125 46 0.125C51.4075 0.125 56.5935 2.27311 60.4171 6.09677C64.2408 9.92042 66.3889 15.1064 66.3889 20.5139C66.3889 25.9214 64.2408 31.1074 60.4171 34.931C56.5935 38.7547 51.4075 40.9028 46 40.9028C40.5925 40.9028 35.4065 38.7547 31.5829 34.931C27.7592 31.1074 25.6111 25.9214 25.6111 20.5139ZM25.6111 51.0972C18.8518 51.0972 12.3693 53.7824 7.58971 58.5619C2.81014 63.3415 0.125 69.824 0.125 76.5833C0.125 80.6389 1.73608 84.5284 4.60383 87.3962C7.47157 90.2639 11.3611 91.875 15.4167 91.875H76.5833C80.6389 91.875 84.5284 90.2639 87.3962 87.3962C90.2639 84.5284 91.875 80.6389 91.875 76.5833C91.875 69.824 89.1899 63.3415 84.4103 58.5619C79.6307 53.7824 73.1482 51.0972 66.3889 51.0972H25.6111Z" fill="#2A2A2A"/>
</svg>
