<svg width="25" height="30" viewBox="0 0 25 30" fill="none" xmlns="http://www.w3.org/2000/svg">
<path d="M12.5 29.25C10.7813 29.25 9.17158 28.9237 7.671 28.271C6.17042 27.6183 4.86417 26.7361 3.75225 25.6241C2.64033 24.5122 1.75804 23.206 1.10538 21.7054C0.452708 20.2048 0.125917 18.5947 0.125 16.875C0.125 16.4854 0.257 16.1591 0.521 15.896C0.785 15.6329 1.11133 15.5009 1.5 15.5C1.88867 15.4991 2.21546 15.6311 2.48038 15.896C2.74529 16.1609 2.87683 16.4873 2.875 16.875C2.875 19.5563 3.80908 21.831 5.67725 23.6991C7.54542 25.5673 9.81967 26.5009 12.5 26.5C15.1803 26.4991 17.455 25.5655 19.3241 23.6991C21.1932 21.8328 22.1268 19.5581 22.125 16.875C22.1232 14.1919 21.1895 11.9177 19.3241 10.0523C17.4587 8.18684 15.184 7.25276 12.5 7.25001H12.2938L13.4625 8.41876C13.7375 8.69376 13.8695 9.01459 13.8585 9.38126C13.8475 9.74793 13.7155 10.0688 13.4625 10.3438C13.1875 10.6188 12.8612 10.7622 12.4835 10.7741C12.1058 10.7861 11.779 10.6541 11.5031 10.3781L7.9625 6.83751C7.6875 6.56251 7.55 6.24168 7.55 5.87501C7.55 5.50834 7.6875 5.18751 7.9625 4.91251L11.5031 1.37188C11.7781 1.09688 12.1049 0.964885 12.4835 0.975885C12.8621 0.986885 13.1884 1.13034 13.4625 1.40626C13.7146 1.68126 13.8466 2.00209 13.8585 2.36876C13.8704 2.73543 13.7384 3.05626 13.4625 3.33126L12.2938 4.50001H12.5C14.2188 4.50001 15.8289 4.8268 17.3304 5.48038C18.8319 6.13397 20.1381 7.01626 21.2491 8.12726C22.3601 9.23826 23.2424 10.5445 23.896 12.046C24.5496 13.5475 24.8759 15.1572 24.875 16.875C24.8741 18.5928 24.5478 20.203 23.896 21.7054C23.2443 23.2078 22.362 24.5141 21.2491 25.6241C20.1363 26.7342 18.83 27.6165 17.3304 28.271C15.8307 28.9255 14.2206 29.2518 12.5 29.25Z" fill="#23A142"/>
</svg>
