<svg width="34" height="40" viewBox="0 0 34 40" fill="none" xmlns="http://www.w3.org/2000/svg">
<path d="M13.3333 4.50004C12.8139 4.50004 12.3788 4.32404 12.028 3.97204C11.6772 3.62004 11.5012 3.18493 11.5 2.66671C11.4988 2.14849 11.6748 1.71337 12.028 1.36137C12.3812 1.00937 12.8163 0.833374 13.3333 0.833374H20.6667C21.1861 0.833374 21.6218 1.00937 21.9738 1.36137C22.3258 1.71337 22.5012 2.14849 22.5 2.66671C22.4988 3.18493 22.3228 3.62065 21.972 3.97387C21.6212 4.3271 21.1861 4.50249 20.6667 4.50004H13.3333ZM17 24.6667C17.5194 24.6667 17.9552 24.4907 18.3072 24.1387C18.6592 23.7867 18.8346 23.3516 18.8333 22.8334V15.5C18.8333 14.9806 18.6573 14.5455 18.3053 14.1947C17.9533 13.8439 17.5182 13.6679 17 13.6667C16.4818 13.6655 16.0467 13.8415 15.6947 14.1947C15.3427 14.5479 15.1667 14.983 15.1667 15.5V22.8334C15.1667 23.3528 15.3427 23.7885 15.6947 24.1405C16.0467 24.4925 16.4818 24.6679 17 24.6667ZM17 39.3334C14.7389 39.3334 12.6073 38.8983 10.6053 38.028C8.60333 37.1578 6.85433 35.9735 5.35833 34.475C3.86233 32.9766 2.67861 31.227 1.80717 29.2262C0.935722 27.2254 0.5 25.0945 0.5 22.8334C0.5 20.5723 0.935722 18.4407 1.80717 16.4387C2.67861 14.4367 3.86233 12.6877 5.35833 11.1917C6.85433 9.69571 8.60394 8.51198 10.6072 7.64054C12.6104 6.7691 14.7413 6.33337 17 6.33337C18.8944 6.33337 20.7125 6.63893 22.4542 7.25004C24.1958 7.86115 25.8306 8.74726 27.3583 9.90837L28.6417 8.62504C28.9778 8.28893 29.4056 8.12087 29.925 8.12087C30.4444 8.12087 30.8722 8.28893 31.2083 8.62504C31.5444 8.96115 31.7125 9.38893 31.7125 9.90837C31.7125 10.4278 31.5444 10.8556 31.2083 11.1917L29.925 12.475C31.0861 14.0028 31.9722 15.6375 32.5833 17.3792C33.1944 19.1209 33.5 20.9389 33.5 22.8334C33.5 25.0945 33.0643 27.226 32.1928 29.228C31.3214 31.23 30.1377 32.979 28.6417 34.475C27.1457 35.971 25.3961 37.1554 23.3928 38.028C21.3896 38.9007 19.2587 39.3358 17 39.3334Z" fill="#CB47B8"/>
</svg>
